<?xml version="1.0" standalone="no"?>
<!DOCTYPE svg PUBLIC "-//W3C//DTD SVG 20010904//EN"
 "http://www.w3.org/TR/2001/REC-SVG-20010904/DTD/svg10.dtd">
<svg version="1.0" xmlns="http://www.w3.org/2000/svg"
 width="460.000000pt" height="460.000000pt" viewBox="0 0 460.000000 460.000000"
 preserveAspectRatio="xMidYMid meet">
<metadata>
Created by potrace 1.11, written by Peter Selinger 2001-2013
</metadata>
<g transform="translate(0.000000,460.000000) scale(0.100000,-0.100000)"
fill="#000000" stroke="none">
<path d="M2025 4557 c-14 -24 -25 -47 -25 -50 0 -4 14 -7 30 -7 25 0 38 11 28
23 -2 1 9 16 25 32 34 38 34 45 -3 45 -24 0 -34 -8 -55 -43z"/>
<path d="M2549 4573 c-7 -16 -24 -45 -36 -65 -29 -47 -29 -51 0 -42 l22 6 -24
-26 c-18 -19 -21 -26 -9 -26 14 0 50 -25 73 -51 6 -6 27 -27 47 -46 21 -20 35
-39 33 -44 -3 -4 -1 -10 5 -14 7 -4 7 -12 0 -25 -14 -25 -13 -30 5 -24 10 4
15 0 15 -10 0 -9 9 -26 20 -38 23 -25 24 -21 9 19 -18 49 7 10 29 -45 12 -29
18 -60 15 -70 -12 -31 44 42 98 130 86 138 149 238 201 316 26 41 48 75 48 78
0 2 -121 4 -268 4 l-269 0 -14 -27z"/>
<path d="M3809 4511 c-89 -94 -149 -165 -149 -176 0 -4 18 -25 40 -46 25 -24
40 -48 40 -63 0 -14 6 -31 13 -38 8 -7 12 -18 10 -24 -4 -13 102 -124 118
-124 5 0 9 5 9 11 0 5 5 7 10 4 6 -4 8 -10 5 -15 -3 -5 10 -16 30 -24 33 -14
52 -35 20 -23 -18 8 -26 -5 -15 -23 7 -11 11 -11 23 -1 10 8 17 9 22 1 3 -5
-1 -10 -9 -10 -9 0 -16 -6 -16 -13 0 -8 10 -13 23 -13 20 1 22 -3 20 -44 -1
-24 2 -47 8 -50 5 -4 11 -21 12 -38 1 -21 6 -31 15 -27 17 6 15 -1 -13 -43
-14 -20 -25 -42 -25 -49 0 -7 -4 -13 -10 -13 -17 0 -46 -74 -42 -109 2 -24 9
-35 25 -39 21 -6 21 -6 -3 -12 -16 -4 -31 -1 -42 8 -10 8 -25 12 -34 8 -16 -6
-15 -8 5 -22 12 -9 50 -30 84 -48 34 -17 73 -39 87 -49 13 -9 28 -17 32 -17 4
0 5 24 3 53 -4 38 -2 45 4 27 5 -14 9 -39 10 -56 2 -60 59 -83 64 -25 2 25 -1
25 41 7 l33 -14 1 36 c2 41 12 58 12 18 0 -18 7 -30 25 -38 13 -6 27 -19 30
-29 3 -9 17 -20 31 -23 26 -7 83 -43 96 -61 10 -13 -1 -27 -15 -18 -18 11 -36
12 -43 2 -3 -5 0 -8 7 -7 6 2 14 -3 16 -10 3 -7 -1 -11 -7 -10 -7 2 -14 -2
-17 -8 -2 -7 17 -24 43 -39 48 -28 63 -24 64 15 0 13 1 13 10 0 8 -12 10 -12
15 2 6 15 10 14 33 -7 15 -14 30 -25 34 -25 5 0 8 51 8 113 l0 112 -26 -33
c-26 -33 -94 -77 -78 -50 17 29 50 74 64 88 35 35 40 60 40 182 l-1 123 -125
95 c-179 137 -227 173 -369 285 -70 55 -175 137 -233 182 -59 45 -108 86 -110
91 -1 5 10 23 25 39 15 16 39 44 53 62 14 19 42 53 63 78 20 24 37 46 37 49 0
2 -10 4 -23 4 -17 0 -49 -27 -108 -89z m284 -676 c-3 -9 -8 -14 -10 -11 -3 3
-2 9 2 15 9 16 15 13 8 -4z m164 -347 c-3 -8 -6 -5 -6 6 -1 11 2 17 5 13 3 -3
4 -12 1 -19z m-223 -3 c3 -8 1 -15 -4 -15 -6 0 -10 7 -10 15 0 8 2 15 4 15 2
0 6 -7 10 -15z m153 -52 c-3 -10 -5 -2 -5 17 0 19 2 27 5 18 2 -10 2 -26 0
-35z m250 -105 c-3 -7 -5 -2 -5 12 0 14 2 19 5 13 2 -7 2 -19 0 -25z m38 -128
c3 -5 -1 -10 -9 -10 -8 0 -18 5 -21 10 -3 6 1 10 9 10 8 0 18 -4 21 -10z"/>
<path d="M1517 4468 c-30 -29 -39 -64 -21 -79 8 -7 18 -9 21 -5 4 4 1 11 -7
17 -13 8 -13 10 0 19 13 9 13 10 0 10 -13 1 -13 2 0 13 20 16 44 47 37 47 -3
0 -17 -10 -30 -22z"/>
<path d="M1950 4481 c-14 -4 -24 -13 -22 -19 1 -7 -2 -12 -8 -12 -5 0 -17 -8
-27 -19 -18 -18 -68 -36 -58 -21 8 13 -41 18 -56 6 -8 -6 -14 -18 -14 -26 0
-8 -10 -15 -22 -16 -12 -1 -34 -9 -49 -18 -24 -17 -45 -17 -88 0 -11 4 -16 2
-14 -7 5 -21 -42 -23 -57 -2 -8 10 -15 13 -15 7 0 -6 -14 -9 -32 -7 -32 3 -31
2 7 -11 31 -11 35 -14 16 -15 -13 -1 -29 -8 -35 -16 -7 -9 -35 -16 -79 -19
-37 -2 -78 -10 -90 -18 -12 -7 -34 -20 -49 -27 -16 -8 -35 -25 -44 -39 -9 -13
-11 -21 -5 -18 6 4 16 4 22 0 8 -4 3 -12 -12 -21 -13 -8 -16 -12 -7 -9 10 3
20 1 23 -4 4 -6 2 -10 -4 -10 -16 0 -71 -51 -65 -61 3 -5 -2 -16 -10 -25 -9
-8 -16 -23 -16 -33 0 -27 -31 -46 -73 -46 -27 0 -39 -5 -43 -17 -3 -10 -10
-18 -16 -18 -5 0 -8 6 -5 13 8 20 -35 15 -60 -7 -13 -11 -23 -24 -23 -30 0 -6
-8 -24 -17 -41 -21 -40 -91 -171 -112 -212 -9 -18 -20 -32 -26 -32 -5 0 -41
20 -80 44 -38 24 -92 58 -120 75 -27 17 -70 44 -95 60 -162 104 -275 160 -230
115 16 -15 273 -194 422 -292 62 -41 86 -62 82 -73 -13 -34 -27 -172 -17 -179
5 -3 12 -14 16 -23 5 -15 2 -16 -19 -8 -13 5 -37 18 -52 29 -15 10 -84 53
-155 96 l-128 77 19 31 c56 94 83 148 78 156 -6 9 -247 174 -289 198 -12 7
-42 21 -67 32 -25 11 -64 31 -87 46 l-43 26 0 -700 c0 -551 3 -700 12 -704 10
-4 10 -6 1 -6 -19 -1 -18 -137 1 -144 18 -7 41 -47 27 -47 -5 0 -13 9 -16 20
-12 38 -25 20 -25 -36 l0 -56 23 15 c20 13 24 13 24 1 0 -8 -11 -17 -24 -20
l-23 -6 0 -379 c0 -208 3 -379 7 -379 3 0 99 48 212 107 364 188 696 353 711
353 9 0 1 -11 -18 -26 -18 -14 -30 -29 -27 -33 5 -9 -193 -122 -603 -345
l-277 -151 -3 -753 -2 -752 2300 0 2300 0 0 1166 c0 1161 0 1166 -20 1161 -11
-3 -20 0 -20 5 0 7 -4 7 -13 0 -10 -8 -17 -7 -28 6 -8 9 -15 19 -15 22 -7 42
-34 79 -75 101 -19 9 -24 9 -34 -5 -11 -14 -13 -12 -25 12 -12 25 -13 26 -21
7 l-8 -20 0 20 c-1 11 -6 27 -11 35 -9 13 -12 13 -21 -2 -5 -10 -16 -18 -23
-18 -8 0 -17 -7 -20 -16 -3 -8 -10 -12 -16 -9 -5 3 -10 2 -10 -4 0 -5 3 -11 8
-14 4 -2 2 -2 -5 -1 -7 2 -15 -1 -18 -6 -14 -23 -44 -9 -56 24 l-13 35 -27
-20 c-39 -27 -57 -24 -29 6 24 26 21 47 -3 27 -8 -7 -18 -8 -22 -4 -5 4 -5 2
-1 -5 4 -7 -2 -21 -14 -33 -23 -23 -34 -26 -27 -7 4 10 -3 12 -25 9 -19 -3
-27 -9 -24 -17 9 -23 -17 -35 -39 -18 -19 15 -19 15 3 8 21 -6 23 -4 18 13 -4
11 -2 23 4 27 6 3 8 11 5 16 -9 14 -25 11 -25 -6 0 -8 -4 -15 -10 -15 -10 0
-14 20 -11 50 2 13 1 13 -8 0 -9 -12 -11 -13 -11 -1 0 8 -3 11 -7 7 -8 -8 -9
-13 -12 -41 -1 -13 -4 -13 -21 -3 -11 7 -20 18 -20 25 0 7 -4 13 -10 13 -5 0
-10 -7 -10 -15 0 -8 -7 -15 -15 -15 -18 0 -20 21 -4 37 13 13 3 35 -14 31 -7
-2 -23 8 -36 21 -22 22 -25 22 -33 7 -7 -13 -5 -21 9 -31 17 -14 17 -14 -4
-15 -12 0 -27 9 -33 20 -6 11 -15 18 -21 15 -5 -4 -12 2 -16 11 -4 10 -2 19 5
22 7 2 12 11 12 19 0 12 -3 13 -13 4 -8 -6 -16 -8 -19 -5 -3 3 -5 -1 -4 -8 2
-25 -16 -19 -37 13 -17 25 -34 35 -72 44 -27 6 -60 17 -73 24 -19 10 -26 10
-39 -1 -14 -11 -15 -10 -8 11 7 22 5 23 -21 17 -16 -4 -35 -14 -41 -23 -11
-14 -13 -14 -13 -2 0 8 5 20 12 27 9 9 9 12 -1 12 -7 0 -22 -10 -33 -22 l-20
-23 6 24 c5 25 -18 59 -29 41 -3 -5 -15 -10 -26 -10 -11 0 -18 4 -15 9 9 14
-27 71 -45 71 -9 0 -19 9 -22 20 -3 12 -14 20 -26 20 -12 0 -21 5 -21 11 0 7
-11 8 -30 4 -29 -6 -42 6 -20 20 17 11 11 22 -14 27 -17 4 -23 1 -19 -9 7 -17
-28 -18 -46 0 -11 10 -12 5 -7 -26 13 -72 8 -152 -14 -217 -37 -108 -49 -128
-85 -141 -33 -12 -33 -12 -40 -98 -17 -212 -84 -417 -174 -528 -17 -21 -56
-69 -86 -108 -165 -207 -225 -252 -344 -259 -66 -4 -71 -3 -75 17 -2 12 -9 48
-16 79 -10 50 -9 59 7 78 13 15 18 40 20 92 1 56 6 75 19 85 25 18 13 24 -27
13 -22 -7 -35 -7 -37 0 -2 5 -10 10 -17 10 -9 0 -12 16 -11 54 1 39 -4 59 -16
73 -10 11 -18 28 -18 39 0 25 -18 44 -42 44 -11 0 -18 7 -18 20 0 11 -6 23
-14 26 -19 7 -27 36 -32 114 -7 118 -37 324 -57 400 -31 119 -33 198 -7 254
20 42 24 45 36 29 12 -17 13 -17 19 -1 4 10 11 15 16 12 5 -3 9 3 9 12 0 13 7
8 25 -16 l25 -34 0 30 c0 28 2 29 42 30 26 1 46 8 53 18 14 19 29 20 58 4 26
-14 130 -21 122 -8 -11 17 15 20 51 5 30 -12 35 -12 31 -1 -6 15 20 26 59 26
26 0 32 13 29 57 -4 47 21 31 29 -20 5 -31 9 -38 16 -27 7 11 10 8 11 -15 0
-25 2 -27 8 -10 5 11 6 38 4 60 -3 35 -2 37 7 16 15 -34 19 -23 11 29 -7 48 6
123 20 115 4 -3 6 -12 2 -20 -3 -9 0 -22 7 -30 12 -14 7 -19 -13 -16 -5 1 -6
-3 -2 -9 3 -5 13 -10 21 -10 8 0 14 -4 14 -10 0 -5 -6 -7 -12 -5 -9 4 -13 -6
-14 -29 0 -19 3 -33 8 -30 4 3 8 -7 9 -23 l1 -28 15 34 c8 19 17 55 19 80 2
25 7 53 9 62 3 9 -1 24 -10 32 -8 9 -15 22 -15 30 0 27 -33 116 -41 111 -4 -2
-6 -11 -2 -19 3 -8 1 -15 -5 -15 -5 0 -10 21 -10 48 -1 26 -4 58 -8 72 -3 14
-7 35 -8 48 -1 21 -2 21 -15 5 -12 -17 -13 -16 -8 4 3 13 1 26 -4 29 -5 3 -9
-6 -9 -20 0 -14 4 -27 9 -30 5 -3 12 -23 15 -43 4 -21 9 -46 12 -55 3 -10 1
-18 -5 -18 -6 0 -11 11 -11 24 0 48 -20 38 -21 -11 -1 -27 -4 -37 -6 -23 -3
14 -14 35 -26 48 -11 12 -16 22 -11 22 5 0 9 35 10 78 0 42 5 86 11 97 8 15 8
28 -2 50 -14 33 -15 31 -39 -45 -9 -27 -14 -36 -15 -23 -1 27 -17 38 -28 19
-5 -10 -13 -12 -22 -7 -11 7 -10 14 5 37 l19 29 -27 -17 c-15 -10 -34 -18 -43
-18 -12 0 -11 4 5 20 11 11 17 26 13 36 -5 13 -7 13 -14 2 -7 -10 -9 -10 -9 2
0 9 -3 11 -8 5 -4 -6 -16 -10 -28 -9 -16 1 -21 -6 -22 -34 -4 -56 -18 -69 -18
-16 1 45 0 48 -31 56 -25 6 -33 14 -33 31 1 21 1 22 15 3 8 -11 15 -15 15 -8
0 6 -6 17 -13 23 -7 7 -12 26 -10 43 3 30 3 30 -8 -4 -14 -44 -15 -46 -34 -30
-13 11 -15 9 -16 -11 l0 -24 -10 25 c-10 24 -11 25 -25 5 -8 -11 -12 -25 -10
-32 3 -7 1 -15 -4 -18 -15 -9 -23 41 -10 64 8 16 8 21 -1 21 -6 0 -9 6 -6 13
3 8 -8 19 -25 26 l-30 13 37 36 c21 20 42 48 48 62 8 20 11 22 14 8 3 -10 -2
-31 -10 -46 -8 -17 -10 -36 -6 -48 7 -18 8 -18 15 4 6 21 28 30 37 15 2 -5 2
-2 0 5 -1 8 4 23 13 35 15 21 16 21 9 -10 -4 -21 -3 -33 4 -33 6 0 11 -7 11
-15 0 -14 12 -20 34 -16 4 1 14 -4 22 -10 11 -9 14 -5 15 22 1 19 1 40 0 47
-1 6 2 12 8 12 5 0 8 -20 7 -45 -3 -38 0 -45 18 -51 11 -4 25 -12 29 -18 6 -8
10 -8 14 2 6 14 43 17 43 2 0 -5 -7 -7 -15 -4 -11 4 -15 0 -15 -16 0 -18 3
-20 14 -11 11 9 16 9 22 0 4 -8 -1 -19 -12 -28 -19 -15 -19 -15 2 -38 27 -29
28 -29 48 5 l17 27 -20 -22 c-24 -28 -31 -29 -31 -2 0 12 4 17 11 13 8 -4 9 1
4 16 -5 15 -3 20 3 16 12 -7 21 5 27 33 3 14 -4 22 -26 30 -16 5 -29 12 -29
15 0 3 11 1 25 -4 14 -5 32 -7 40 -4 11 5 15 -1 15 -20 0 -14 5 -26 11 -26 5
0 7 -5 4 -10 -4 -6 -10 -8 -14 -6 -4 3 -7 -4 -8 -14 -1 -16 2 -18 22 -8 14 6
22 15 19 19 -3 5 -1 9 4 9 6 0 9 22 9 49 -1 27 -5 47 -9 44 -5 -2 -8 11 -8 29
0 22 3 29 9 19 6 -9 10 -4 13 19 3 20 0 34 -8 37 -7 2 -11 10 -8 17 3 7 -6 17
-18 22 -13 6 -52 25 -88 42 -36 18 -75 32 -87 32 -12 0 -25 5 -28 10 -3 6 1
10 9 10 31 0 15 18 -19 22 -19 2 -35 0 -35 -6 0 -6 -5 -5 -12 2 -18 18 -4 24
54 25 34 0 44 2 29 6 -14 4 -26 12 -29 19 -3 9 3 10 21 3 13 -5 44 -11 70 -14
25 -3 50 -8 55 -11 6 -3 20 -2 32 2 22 8 22 9 -9 21 -17 7 -28 17 -25 22 3 5
-10 9 -28 8 -31 -1 -32 -1 -8 -9 15 -5 19 -8 8 -9 -27 -2 -76 20 -58 27 8 3
21 12 29 19 23 23 0 35 -47 24 -24 -5 -39 -5 -36 0 3 5 -11 9 -31 9 -22 0 -34
-4 -30 -10 3 -5 14 -10 23 -10 15 0 15 -2 2 -10 -12 -8 -9 -10 13 -10 15 0 27
-4 27 -10 0 -13 -5 -13 -79 8 -36 10 -67 24 -69 31 -3 10 4 11 27 6 19 -4 31
-3 31 4 0 5 -17 13 -37 16 -21 4 -51 11 -67 16 -16 5 -30 8 -32 6 -2 -1 4 -17
13 -34 9 -19 27 -36 46 -42 16 -6 28 -14 24 -17 -3 -3 -21 -1 -40 5 -24 8 -37
20 -41 37 -4 14 -11 22 -17 19 -5 -4 -17 -1 -26 7 -9 7 -28 18 -42 25 -25 11
-26 11 -3 12 14 1 21 5 16 12 -4 6 1 10 12 8 11 -1 30 3 44 8 21 9 22 12 8 18
-9 4 -21 4 -26 1 -11 -6 -72 15 -72 25 0 4 14 12 31 18 17 6 28 15 24 21 -3 6
4 14 17 19 13 6 16 10 8 11 -8 0 -24 2 -35 4 -11 3 -31 1 -45 -3z m-80 -100
c0 -12 -28 -22 -34 -12 -3 5 -3 11 1 15 9 9 33 7 33 -3z m-98 -90 c4 11 8 10
21 -3 16 -16 16 -17 -5 -21 -18 -3 -17 -5 7 -6 17 -1 41 -9 55 -17 l25 -15
-25 6 c-66 17 -73 18 -66 6 10 -15 -2 -14 -18 2 -7 7 -11 18 -8 25 2 6 -5 12
-15 12 -15 0 -15 2 -3 10 9 6 17 5 21 -2 4 -7 8 -6 11 3z m-298 -50 c3 -5 -12
-11 -34 -13 -42 -4 -42 7 0 15 14 2 26 5 27 6 1 0 4 -3 7 -8z m586 -11 c0 -5
-2 -10 -4 -10 -3 0 -8 5 -11 10 -3 6 -1 10 4 10 6 0 11 -4 11 -10z m-735 -20
c-11 -5 -27 -9 -35 -9 -13 -1 -13 0 0 9 8 5 24 9 35 9 l20 0 -20 -9z m360 -9
c-4 -14 0 -21 15 -26 23 -7 25 -45 3 -52 -7 -3 -10 3 -6 15 7 26 -14 38 -22
12 -3 -11 -15 -20 -25 -20 -13 0 -22 -10 -29 -32 -8 -29 -9 -24 -8 29 1 35 5
59 10 54 5 -5 20 2 34 15 31 29 36 30 28 5z m125 -8 c-1 -27 -1 -27 -15 -9
-19 25 -19 36 0 36 10 0 15 -10 15 -27z m436 12 c18 -15 18 -15 -5 -13 -14 2
-26 9 -29 16 -5 17 10 15 34 -3z m-796 -59 c-5 -5 -10 -17 -10 -25 0 -11 6 -9
23 7 29 28 40 19 21 -16 -13 -26 -18 -52 -10 -52 2 0 11 -3 20 -6 11 -4 19 2
25 17 l10 24 0 -25 c0 -29 -22 -63 -44 -66 -14 -2 -19 7 -16 33 1 6 -3 14 -9
18 -5 3 -10 15 -10 26 0 23 -15 25 -24 3 -3 -8 -10 -12 -16 -9 -18 11 -11 46
13 66 12 10 17 18 11 19 -6 0 -17 -7 -24 -15 -16 -19 -34 -19 -49 -1 -9 10 -8
15 4 20 9 3 15 0 15 -10 0 -13 5 -12 26 5 21 17 30 19 41 9 10 -8 11 -14 3
-22z m-130 -17 c0 -6 7 -9 14 -6 10 4 13 1 9 -8 -3 -8 -9 -13 -13 -10 -5 3
-12 -1 -17 -9 -8 -14 -63 -31 -63 -19 0 9 54 62 63 63 4 0 7 -5 7 -11z m620
-19 c12 -23 12 -24 -3 -11 -10 7 -17 20 -17 29 0 18 3 16 20 -18z m51 6 c0 10
3 13 6 7 2 -7 12 -13 21 -13 12 0 10 -6 -9 -26 -22 -23 -24 -24 -36 -8 -7 10
-13 27 -13 38 1 21 1 21 15 2 15 -20 15 -20 16 0z m-146 -79 c0 -23 -6 -42
-13 -45 -7 -2 -12 5 -12 18 0 15 -5 20 -14 17 -15 -6 -30 19 -20 34 3 5 12 9
20 9 8 0 14 7 14 15 0 12 3 13 13 4 6 -6 12 -30 12 -52z m325 18 c23 -54 50
-82 61 -63 7 10 9 10 9 -2 0 -8 -5 -22 -10 -30 -6 -10 -10 -11 -10 -2 0 6 -7
12 -15 12 -8 0 -15 7 -15 15 0 9 -7 27 -16 41 -14 20 -22 24 -45 19 -32 -7
-33 -6 -20 28 14 37 41 29 61 -18z m-257 -2 c-4 -11 -3 -14 5 -9 7 4 13 -10
18 -44 5 -41 9 -48 20 -39 11 9 14 8 14 -1 0 -7 -8 -19 -17 -26 -17 -12 -17
-14 -2 -29 15 -16 17 -14 24 22 l8 38 7 -30 8 -30 1 32 c0 17 -5 33 -11 36 -7
2 -10 8 -6 12 4 4 20 -3 35 -15 15 -13 20 -20 11 -17 -10 4 -18 2 -18 -3 0
-14 34 -12 48 2 15 15 16 3 1 -23 -5 -11 -14 -17 -20 -14 -9 6 -34 -42 -31
-57 1 -5 -5 -8 -13 -8 -8 0 -15 8 -15 18 -1 16 -1 16 -11 -1 -12 -20 13 -53
32 -41 7 4 10 0 7 -11 -4 -23 -28 -32 -28 -11 0 21 -19 20 -37 -1 -13 -16 -13
-16 -4 3 8 17 7 25 -4 34 -8 6 -19 9 -25 5 -16 -10 -12 51 5 65 19 16 19 34 1
49 -19 16 -32 -5 -16 -24 10 -13 8 -15 -18 -15 -21 0 -31 6 -35 20 -4 15 0 20
13 20 14 0 18 6 15 28 -1 15 4 35 13 45 8 9 12 17 8 17 -4 0 -4 5 -1 10 10 17
25 11 18 -7z m-268 -3 c3 -5 1 -10 -4 -10 -6 0 -11 5 -11 10 0 6 2 10 4 10 3
0 8 -4 11 -10z m-210 -19 c3 -5 1 -12 -5 -16 -5 -3 -10 1 -10 9 0 18 6 21 15
7z m730 -21 c9 -16 12 -30 7 -30 -4 0 -13 14 -19 30 -6 17 -10 30 -7 30 2 0
10 -13 19 -30z m286 -10 c28 -24 30 -29 15 -30 -18 0 -18 -1 -3 -18 10 -10 17
-22 17 -27 0 -4 -24 16 -54 46 -30 30 -52 57 -50 61 7 11 41 -3 75 -32z m-394
8 c-3 -8 -6 -5 -6 6 -1 11 2 17 5 13 3 -3 4 -12 1 -19z m233 1 c0 -6 -4 -7
-10 -4 -5 3 -10 11 -10 16 0 6 5 7 10 4 6 -3 10 -11 10 -16z m-566 -5 c3 -8 2
-12 -4 -9 -6 3 -10 10 -10 16 0 14 7 11 14 -7z m-44 -33 c0 -11 5 -23 10 -26
6 -3 10 -16 10 -28 0 -19 -2 -20 -15 -7 -19 20 -32 80 -16 80 6 0 11 -9 11
-19z m77 -51 c5 -37 4 -42 -10 -37 -9 3 -18 1 -20 -6 -3 -7 -8 0 -12 15 -8 30
14 93 28 79 5 -5 11 -28 14 -51z m622 -5 l23 -40 -26 30 c-14 17 -26 33 -26
37 0 4 -8 4 -17 1 -15 -6 -16 -5 -3 9 17 19 19 17 49 -37z m-16 -51 c-8 -22
-31 -16 -38 9 -19 64 -19 64 13 33 17 -15 28 -35 25 -42z m-226 -140 c2 -6 -3
-11 -12 -11 -8 0 -15 7 -15 15 0 15 22 12 27 -4z m-10 -76 c-3 -8 -6 -5 -6 6
-1 11 2 17 5 13 3 -3 4 -12 1 -19z m-2016 -47 c19 -12 30 -21 26 -21 -11 0
-107 49 -107 55 0 7 43 -11 81 -34z m1809 26 c0 -2 -10 -12 -22 -23 l-23 -19
19 23 c18 21 26 27 26 19z m-1710 -72 c25 -13 41 -24 35 -24 -5 0 -30 11 -55
24 -25 13 -40 24 -35 24 6 0 30 -11 55 -24z m260 -113 c225 -101 292 -133 288
-138 -5 -4 -458 202 -467 213 -8 9 2 4 179 -75z m510 -588 c0 -4 -13 -22 -30
-41 -36 -40 -38 -36 -7 12 20 32 37 45 37 29z m652 -93 c4 -3 -15 -4 -43 -3
-40 3 -48 7 -39 17 9 10 19 11 43 3 18 -6 35 -13 39 -17z m-749 -56 c-3 -9 -8
-14 -10 -11 -3 3 -2 9 2 15 9 16 15 13 8 -4z m2884 -187 c-3 -7 -5 -2 -5 12 0
14 2 19 5 13 2 -7 2 -19 0 -25z m162 -51 c1 -5 -3 -5 -9 -2 -5 3 -10 16 -9 28
0 21 1 21 9 2 5 -11 9 -24 9 -28z m-38 -20 c-10 -9 -11 -8 -5 6 3 10 9 15 12
12 3 -3 0 -11 -7 -18z m-866 -107 c9 -18 11 -30 5 -30 -9 0 -30 40 -30 56 0
12 11 1 25 -26z m-998 -262 c17 -30 31 -108 19 -108 -2 0 -16 4 -30 10 -19 7
-26 17 -26 35 0 15 -5 35 -11 46 -7 15 -7 24 2 35 17 21 25 18 46 -18z m-179
-666 c2 -7 -2 -10 -12 -6 -9 3 -16 11 -16 16 0 13 23 5 28 -10z m742 8 c0 -13
-11 -13 -30 0 -12 8 -11 10 8 10 12 0 22 -4 22 -10z"/>
<path d="M1828 4433 c7 -3 16 -2 19 1 4 3 -2 6 -13 5 -11 0 -14 -3 -6 -6z"/>
<path d="M2080 4364 c0 -10 48 -34 67 -34 22 0 14 17 -9 23 -13 2 -31 8 -40
12 -10 4 -18 3 -18 -1z"/>
<path d="M2250 4330 c-25 -6 -25 -6 5 -12 34 -7 37 -6 27 8 -4 6 -18 8 -32 4z"/>
<path d="M2510 4180 c8 -5 11 -10 5 -10 -5 0 -3 -5 5 -10 12 -7 8 -10 -15 -10
-21 0 -26 -3 -16 -9 8 -5 9 -11 3 -15 -5 -3 -15 0 -21 8 -7 8 -28 17 -47 21
-20 3 -43 8 -52 11 -9 3 6 -6 34 -19 28 -14 55 -30 58 -36 10 -16 2 -14 -39
10 -53 31 -53 17 0 -16 25 -16 45 -33 45 -37 0 -4 8 -8 18 -8 16 1 16 2 -2 15
-21 16 -13 37 10 28 11 -4 15 -15 12 -33 -3 -20 0 -27 11 -26 19 1 41 -43 46
-95 3 -22 11 -47 20 -55 13 -14 15 -13 15 11 0 14 -7 28 -15 31 -8 4 -15 14
-15 23 1 14 2 14 13 1 7 -9 21 -14 32 -12 17 2 17 1 5 -8 -13 -9 -13 -12 3
-21 9 -6 14 -15 11 -21 -4 -6 -2 -8 4 -4 6 3 13 2 17 -4 3 -5 2 -10 -4 -10 -6
0 -8 -7 -5 -15 4 -10 13 -13 25 -10 14 5 21 0 28 -17 6 -16 18 -24 37 -26 27
-2 28 -1 11 15 -16 16 -19 16 -27 3 -13 -21 -12 -3 1 21 8 17 7 23 -7 34 -15
11 -16 17 -7 38 10 22 9 24 -7 20 -12 -3 -20 2 -25 16 -4 12 -16 30 -27 41
-11 10 -21 27 -22 37 -2 30 -43 76 -62 69 -9 -4 -14 -13 -10 -21 3 -9 0 -15
-9 -15 -20 0 -19 36 1 44 8 3 12 10 9 16 -3 5 2 10 12 11 13 1 11 3 -7 9 -14
4 -19 8 -12 9 21 2 -13 31 -35 31 -15 0 -16 -2 -3 -10z"/>
<path d="M2625 4104 c8 -9 15 -22 15 -30 0 -8 5 -14 10 -14 7 0 7 7 0 20 -6
11 -9 24 -6 28 2 4 -4 9 -15 9 -17 2 -18 0 -4 -13z"/>
<path d="M2690 4055 c0 -8 4 -15 10 -15 5 0 7 7 4 15 -4 8 -8 15 -10 15 -2 0
-4 -7 -4 -15z"/>
<path d="M2652 4039 c2 -7 10 -15 17 -17 8 -3 12 1 9 9 -2 7 -10 15 -17 17 -8
3 -12 -1 -9 -9z"/>
<path d="M1061 4011 c-8 -5 -20 -7 -28 -4 -7 3 -13 1 -13 -4 0 -15 38 -13 51
3 13 16 10 18 -10 5z"/>
<path d="M3905 3950 c3 -5 8 -10 11 -10 2 0 4 5 4 10 0 6 -5 10 -11 10 -5 0
-7 -4 -4 -10z"/>
<path d="M3966 3884 c-5 -12 -2 -15 10 -10 8 3 18 6 20 6 2 0 4 5 4 10 0 16
-27 11 -34 -6z"/>
<path d="M2231 3824 c0 -11 3 -14 6 -6 3 7 2 16 -1 19 -3 4 -6 -2 -5 -13z"/>
<path d="M2250 3831 c0 -5 7 -15 17 -22 15 -13 15 -12 4 9 -12 23 -21 28 -21
13z"/>
<path d="M2585 3820 c7 -21 -10 -28 -18 -7 -3 7 -6 5 -6 -5 -1 -10 5 -18 13
-18 8 0 16 -6 19 -12 2 -7 7 -10 11 -7 9 8 -5 69 -16 69 -5 0 -6 -9 -3 -20z"/>
<path d="M2685 3800 c3 -5 8 -10 11 -10 2 0 4 5 4 10 0 6 -5 10 -11 10 -5 0
-7 -4 -4 -10z"/>
<path d="M3068 3793 c18 -2 45 -2 60 0 15 2 0 4 -33 4 -33 0 -45 -2 -27 -4z"/>
<path d="M2714 3693 c3 -51 2 -94 -3 -97 -4 -3 -7 -39 -6 -81 2 -63 6 -79 24
-94 12 -11 17 -21 12 -23 -5 -1 -1 -21 9 -43 11 -22 19 -44 20 -48 0 -5 9 -20
20 -34 11 -14 17 -30 13 -37 -10 -15 -11 -86 -2 -86 5 0 20 16 35 35 14 19 33
35 41 35 9 0 13 6 10 14 -9 23 34 32 49 11 15 -21 7 -42 -9 -26 -6 6 -16 11
-22 11 -5 0 4 -9 20 -20 35 -23 75 -26 75 -6 0 8 -6 16 -14 19 -8 3 -19 15
-25 25 -10 19 -8 19 31 11 45 -11 51 -9 43 14 -7 16 -37 30 -70 31 -15 1 -21
9 -23 33 -2 17 -10 37 -18 43 -8 7 -14 19 -14 26 0 8 -7 14 -16 14 -13 0 -15
-8 -12 -40 2 -28 0 -40 -9 -40 -7 0 -13 -7 -13 -15 0 -8 -4 -15 -10 -15 -5 0
-10 -9 -10 -20 0 -32 -16 -23 -49 26 -35 51 -35 54 -17 107 13 34 12 37 -3 32
-16 -5 -17 4 -14 82 2 49 4 102 5 118 3 43 -10 83 -33 108 l-20 22 5 -92z"/>
<path d="M2445 3740 c-3 -5 1 -10 9 -10 9 0 16 5 16 10 0 6 -4 10 -9 10 -6 0
-13 -4 -16 -10z"/>
<path d="M2580 3741 c0 -5 5 -13 10 -16 6 -3 10 -2 10 4 0 5 -4 13 -10 16 -5
3 -10 2 -10 -4z"/>
<path d="M2630 3723 c0 -7 -12 -24 -27 -38 -34 -31 -14 -34 21 -2 20 16 23 26
16 37 -6 9 -10 10 -10 3z"/>
<path d="M2540 3690 c0 -24 25 -27 34 -4 9 23 8 24 -14 24 -13 0 -20 -7 -20
-20z"/>
<path d="M2994 3685 c-5 -13 -9 -14 -15 -3 -6 9 -9 4 -9 -14 0 -31 -7 -30 167
-33 l72 -1 -29 17 c-15 10 -52 22 -82 28 -29 6 -63 13 -75 17 -16 4 -25 1 -29
-11z"/>
<path d="M2529 3642 c6 -2 11 -13 11 -23 0 -12 4 -17 11 -14 12 8 39 -24 33
-40 -2 -5 3 -30 10 -55 8 -25 15 -39 15 -32 1 19 21 14 21 -5 0 -10 5 -25 11
-33 9 -12 10 -11 5 5 -6 20 -6 20 9 1 15 -20 15 -20 15 0 0 11 -5 25 -10 30
-6 6 -12 32 -13 58 -2 38 -5 46 -18 43 -12 -3 -15 1 -12 14 4 14 0 19 -13 19
-14 0 -15 3 -6 12 19 19 14 23 -34 23 -25 0 -41 -1 -35 -3z"/>
<path d="M2990 3580 c0 -5 15 -10 33 -9 27 0 29 2 12 9 -28 12 -45 12 -45 0z"/>
<path d="M2800 3504 c0 -10 5 -26 10 -34 8 -11 9 -7 4 15 -8 37 -14 45 -14 19z"/>
<path d="M2973 3503 c-22 -8 -15 -49 10 -61 24 -12 84 -25 90 -20 2 2 11 -3
20 -11 15 -12 17 -11 17 7 0 12 9 23 20 27 49 15 -4 51 -79 54 -29 1 -56 3
-60 5 -3 2 -12 1 -18 -1z"/>
<path d="M2576 3447 c3 -10 9 -15 12 -12 3 3 0 11 -7 18 -10 9 -11 8 -5 -6z"/>
<path d="M2961 3396 c-15 -18 -7 -36 16 -36 9 0 13 -6 9 -15 -5 -13 -2 -14 16
-4 20 11 20 13 4 24 -9 7 -15 18 -14 25 4 19 -17 23 -31 6z"/>
<path d="M2670 3325 c0 -26 -24 -35 -33 -12 -3 7 -6 7 -6 1 -1 -6 8 -22 19
-34 13 -15 20 -35 18 -53 -2 -20 2 -32 12 -35 12 -4 13 -3 2 10 -10 13 -9 18
3 28 13 11 14 10 9 -4 -5 -12 -2 -15 10 -10 11 4 16 1 16 -10 0 -9 5 -16 10
-16 6 0 10 -7 10 -15 0 -20 16 -19 24 1 7 18 -14 74 -26 74 -5 0 -8 8 -8 19 0
10 -7 24 -15 31 -8 6 -14 15 -13 18 2 21 -4 32 -17 32 -9 0 -15 -9 -15 -25z"/>
<path d="M2992 3148 c-9 -9 -3 -15 29 -26 23 -7 43 -11 47 -8 3 3 0 6 -8 6
-10 0 -10 3 1 17 13 15 11 16 -18 10 -18 -4 -33 -2 -35 4 -2 6 -8 5 -16 -3z"/>
<path d="M4585 3100 c3 -5 8 -10 11 -10 2 0 4 5 4 10 0 6 -5 10 -11 10 -5 0
-7 -4 -4 -10z"/>
<path d="M2983 2995 c8 -48 11 -51 34 -28 16 16 17 21 6 32 -8 7 -13 8 -13 1
0 -5 -4 -10 -10 -10 -5 0 -7 6 -4 14 3 8 0 17 -7 22 -9 5 -11 -2 -6 -31z"/>
<path d="M3143 3003 c9 -2 23 -2 30 0 6 3 -1 5 -18 5 -16 0 -22 -2 -12 -5z"/>
<path d="M2215 2940 c-27 -10 -111 -101 -120 -129 -4 -15 -1 -35 11 -57 23
-41 32 -43 26 -6 -2 18 2 33 12 41 14 12 16 11 16 -6 0 -11 7 -34 16 -51 14
-29 34 -38 67 -33 4 0 7 -4 7 -9 0 -17 26 -11 45 10 10 11 24 20 30 20 7 0 18
7 25 15 11 14 10 14 -12 6 -15 -5 -30 -6 -39 0 -12 7 -11 9 2 9 27 0 50 24 58
62 7 30 6 38 -8 41 -9 3 -4 5 11 6 15 0 43 -7 63 -16 29 -14 40 -15 55 -5 11
7 27 12 37 12 11 0 14 3 7 10 -5 5 -43 12 -84 15 -120 9 -161 16 -155 24 4 8
-17 31 -40 43 -5 3 -19 2 -30 -2z"/>
<path d="M3175 2910 c-3 -5 -1 -10 4 -10 6 0 11 5 11 10 0 6 -2 10 -4 10 -3 0
-8 -4 -11 -10z"/>
<path d="M3705 2690 c-3 -5 -1 -10 4 -10 6 0 11 5 11 10 0 6 -2 10 -4 10 -3 0
-8 -4 -11 -10z"/>
<path d="M3978 2543 c-21 -5 -24 -23 -4 -23 8 0 16 7 20 15 3 8 4 14 3 14 -1
-1 -10 -3 -19 -6z"/>
<path d="M4275 2520 c3 -5 8 -10 11 -10 2 0 4 5 4 10 0 6 -5 10 -11 10 -5 0
-7 -4 -4 -10z"/>
<path d="M2120 2224 c-12 -13 -10 -15 16 -10 16 2 32 5 37 5 4 1 7 6 7 11 0
16 -46 12 -60 -6z"/>
<path d="M2360 2004 c-53 -18 -46 -29 20 -29 63 0 79 14 38 31 -16 7 -34 6
-58 -2z"/>
</g>
</svg>
